<?xml version="1.0" standalone="no"?>
<!DOCTYPE svg PUBLIC "-//W3C//DTD SVG 20010904//EN"
 "http://www.w3.org/TR/2001/REC-SVG-20010904/DTD/svg10.dtd">
<svg version="1.0" xmlns="http://www.w3.org/2000/svg"
 width="429.000000pt" height="429.000000pt" viewBox="0 0 429.000000 429.000000"
 preserveAspectRatio="xMidYMid meet">
<metadata>
Created by potrace 1.14, written by Peter Selinger 2001-2017
</metadata>
<g transform="translate(0.000000,429.000000) scale(0.100000,-0.100000)"
fill="#000000" stroke="none">
<path d="M1482 3749 c-154 -20 -254 -42 -382 -85 -446 -150 -781 -459 -958
-886 -150 -360 -157 -815 -20 -1188 131 -353 389 -648 722 -825 166 -88 386
-160 551 -181 22 -3 67 -9 100 -14 65 -9 452 -6 500 4 17 4 68 13 115 22 47 8
117 25 155 36 39 12 73 22 77 23 3 0 10 3 14 7 4 5 14 8 23 8 50 0 363 178
456 259 61 53 205 201 205 211 0 5 -6 13 -14 17 -8 4 -59 49 -113 99 -54 49
-120 110 -148 135 -27 24 -52 47 -55 50 -3 3 -54 49 -113 103 l-109 97 -74
-75 c-64 -65 -190 -166 -207 -166 -4 0 -30 -14 -58 -31 -29 -17 -95 -42 -148
-57 -84 -23 -115 -26 -241 -26 -171 0 -275 22 -404 84 -190 93 -330 258 -405
479 -64 187 -61 445 8 644 99 284 310 465 626 532 64 14 280 14 346 0 190 -40
330 -119 487 -274 l72 -71 58 53 c32 28 93 84 136 122 44 39 96 86 116 105 20
19 75 69 121 110 134 118 125 104 90 148 -77 97 -233 229 -351 299 -41 24 -82
48 -90 53 -27 16 -144 66 -205 87 -119 42 -214 65 -320 79 -22 3 -63 9 -92 13
-69 10 -392 10 -471 0z"/>
<path d="M3625 1559 c-131 -26 -263 -123 -327 -239 -80 -144 -71 -370 20 -514
108 -172 339 -261 550 -211 165 39 303 166 353 326 21 65 28 198 15 267 -20
105 -95 222 -184 287 -41 30 -137 73 -182 82 -45 10 -202 11 -245 2z"/>
</g>
</svg>
