<svg id="visual" viewBox="0 0 900 600" width="900" height="600" xmlns="http://www.w3.org/2000/svg" xmlns:xlink="http://www.w3.org/1999/xlink" version="1.1"><path d="M0 81L25 76C50 71 100 61 150 59.5C200 58 250 65 300 72.3C350 79.7 400 87.3 450 84C500 80.7 550 66.3 600 63.8C650 61.3 700 70.7 750 79.7C800 88.7 850 97.3 875 101.7L900 106L900 0L875 0C850 0 800 0 750 0C700 0 650 0 600 0C550 0 500 0 450 0C400 0 350 0 300 0C250 0 200 0 150 0C100 0 50 0 25 0L0 0Z" fill="#dab7a5" stroke-linecap="round" stroke-linejoin="miter"></path></svg>