<svg id="visual" viewBox="0 0 960 540" width="960" height="540" xmlns="http://www.w3.org/2000/svg" xmlns:xlink="http://www.w3.org/1999/xlink" version="1.1"><path d="M0 73L26.7 68.5C53.3 64 106.7 55 160 53.7C213.3 52.3 266.7 58.7 320 65.2C373.3 71.7 426.7 78.3 480 75.2C533.3 72 586.7 59 640 56.8C693.3 54.7 746.7 63.3 800 71.5C853.3 79.7 906.7 87.3 933.3 91.2L960 95L960 0L933.3 0C906.7 0 853.3 0 800 0C746.7 0 693.3 0 640 0C586.7 0 533.3 0 480 0C426.7 0 373.3 0 320 0C266.7 0 213.3 0 160 0C106.7 0 53.3 0 26.7 0L0 0Z" fill="#dab7a5" stroke-linecap="round" stroke-linejoin="miter"></path></svg>