<svg id="visual" viewBox="0 0 900 900" width="900" height="900" xmlns="http://www.w3.org/2000/svg" xmlns:xlink="http://www.w3.org/1999/xlink" version="1.1"><path d="M0 123L25 115.3C50 107.7 100 92.3 150 90C200 87.7 250 98.3 300 109.3C350 120.3 400 131.7 450 126.5C500 121.3 550 99.7 600 95.8C650 92 700 106 750 119.7C800 133.3 850 146.7 875 153.3L900 160L900 0L875 0C850 0 800 0 750 0C700 0 650 0 600 0C550 0 500 0 450 0C400 0 350 0 300 0C250 0 200 0 150 0C100 0 50 0 25 0L0 0Z" fill="#dab7a5" stroke-linecap="round" stroke-linejoin="miter"></path></svg>